:SAMPLES-PER-SECOND 30
:FULLY-SPECIFIED
:DEGREES
264
root  -61.6299 39.0609 12.8532 31.8723 83.0558 32.8551
RightUpLeg  18.889 -8.52639 -6.02923
RightLeg  12.1428 17.4853 3.32022
RightFoot  -19.397 -0.095886 0.487136
RightToes  -1.74624e-010 0 -3.6325e-017
Spine  5.18865 2.26468 6.67457
Spine1  5.41465 4.34884 -7.48871
HEad  -16.1964 -5.1797 -2.7053
LeftShoulder1  -0.568203 4.94554 -33.2588
LeftArm  -6.99878 16.667 -39.7627
LeftForeArm  40.0354 -4.75325 -7.08359
LeftHand  -0.10567 7.58529 -3.15308
RightShoulder  -1.04762 -6.30495 30.8458
RightArm  26.501 12.7253 47.0025
RightForeArm  2.64424 22.4152 4.82638
RightHand  -0.526697 6.83426 -5.3425
LeftUpLeg  -19.55 3.89447 -5.89706
LeftLeg  7.86797 25.1951 -0.685208
LeftFoot  -0.770046 -0.300134 3.13445
LeftToes  -3.96543e-010 8.93632e-011 -2.58531e-011
265
root  -60.285 38.848 12.905 41.6998 83.1531 42.9406
RightUpLeg  19.4851 -7.77082 -7.53437
RightLeg  16.2547 17.8682 5.25846
RightFoot  -19.3402 0.101202 3.27082
RightToes  -1.74624e-010 0 -3.6325e-017
Spine  4.69755 2.44871 4.56197
Spine1  5.24151 4.32274 -7.20259
HEad  -16.3985 -6.18914 -1.47472
LeftShoulder1  -0.59918 5.00893 -33.6347
LeftArm  -6.67313 17.1108 -38.3919
LeftForeArm  39.2887 -5.0542 -7.19691
LeftHand  -0.0849812 7.24227 -2.75522
RightShoulder  -1.1524 -6.55619 31.219
RightArm  24.8283 10.8623 46.223
RightForeArm  3.83222 23.4086 4.80967
RightHand  -0.527474 7.10973 -5.24531
LeftUpLeg  -20.5006 6.37013 -8.59843
LeftLeg  13.1645 20.9756 2.24826
LeftFoot  1.32418 -0.777495 7.01556
LeftToes  -3.96543e-010 8.93632e-011 -2.58531e-011
266
root  -59.0308 38.6924 12.9586 62.4744 83.2175 64.0512
RightUpLeg  18.0572 -6.9482 -9.25807
RightLeg  24.0941 17.4766 8.1958
RightFoot  -17.5915 0.318333 8.28323
RightToes  -1.74624e-010 0 -3.6325e-017
Spine  4.51974 2.18815 1.83997
Spine1  5.38933 3.75873 -6.9307
HEad  -17.6845 -8.77089 -0.393415
LeftShoulder1  -0.674251 5.18004 -34.0583
LeftArm  -6.16866 15.5149 -37.4921
LeftForeArm  38.0925 -4.55827 -7.49371
LeftHand  -0.0624705 8.27403 -0.585787
RightShoulder  -1.28724 -6.8861 31.5506
RightArm  23.2012 8.71587 46.18
RightForeArm  4.95071 23.3544 4.75163
RightHand  -0.506431 6.51785 -5.27417
LeftUpLeg  -20.743 10.3379 -12.4242
LeftLeg  17.5695 14.1775 4.26672
LeftFoot  -0.89936 -0.646636 7.11743
LeftToes  -3.96543e-010 8.93632e-011 -2.58531e-011
267
root  -57.9778 38.6139 13.0072 73.6822 82.5196 75.5969
RightUpLeg  13.6496 -4.66161 -9.97631
RightLeg  35.4021 15.9701 11.6631
RightFoot  -12.3869 0.0345937 14.9786
RightToes  -1.74624e-010 0 -3.6325e-017
Spine  5.57948 2.25609 0.479515
Spine1  4.84532 3.78737 -8.20162
HEad  -17.0714 -10.1807 -0.556637
LeftShoulder1  -0.58747 4.96844 -33.9489
LeftArm  -6.15434 13.3755 -37.6202
LeftForeArm  38.1635 -3.80585 -7.50914
LeftHand  -0.0422532 8.0269 -0.0443405
RightShoulder  -1.26936 -6.82068 31.7448
RightArm  22.0876 5.72458 46.0917
RightForeArm  4.53335 22.7798 4.71108
RightHand  -0.488479 7.22311 -4.83892
LeftUpLeg  -19.8206 10.3111 -13.608
LeftLeg  19.9486 13.3485 4.67476
LeftFoot  -2.80718 -0.504395 6.984
LeftToes  -3.96543e-010 8.93632e-011 -2.58531e-011
268
root  -56.98 38.6013 13.02 77.0393 81.2798 79.2604
RightUpLeg  7.3936 -1.33757 -10.9978
RightLeg  47.6277 13.8636 15.4877
RightFoot  -3.11929 -1.33491 18.5183
RightToes  -1.74624e-010 0 -3.6325e-017
Spine  6.60731 2.35283 -1.5128
Spine1  4.53354 3.65161 -8.6381
HEad  -17.0276 -11.0738 -0.694859
LeftShoulder1  -0.586358 4.96605 -33.9377
LeftArm  -6.21772 11.7519 -38.4606
LeftForeArm  38.9142 -4.70512 -7.54719
LeftHand  -0.0722739 6.98634 -2.16525
RightShoulder  -1.12806 -6.48361 31.3207
RightArm  24.2543 3.82114 46.3776
RightForeArm  2.59254 21.6386 4.84263
RightHand  -0.397755 6.86828 -4.11079
LeftUpLeg  -18.2251 9.08135 -14.3134
LeftLeg  21.2125 14.491 4.81948
LeftFoot  -4.89384 -0.345452 6.62171
LeftToes  -3.96543e-010 8.93632e-011 -2.58531e-011
